<svg xmlns="http://www.w3.org/2000/svg" width="1920" viewBox="0 0 1440 810" height="1080" version="1.0"><defs><clipPath id="a"><path d="M648.434 633.527h49.207v49.211h-49.207Zm0 0"/></clipPath><clipPath id="b"><path d="M673.04 633.527c-13.59 0-24.606 11.016-24.606 24.606 0 13.59 11.015 24.605 24.605 24.605 13.586 0 24.602-11.015 24.602-24.605s-11.016-24.606-24.602-24.606Zm0 0"/></clipPath><clipPath id="c"><path d="M0 20h23v35H0Zm0 0"/></clipPath><clipPath id="d"><path d="m16.86 17.406 8.12 9.828-36.418 30.102-8.124-9.828Zm0 0"/></clipPath><clipPath id="e"><path d="m16.86 17.406 8.12 9.828-36.418 30.102-8.124-9.828Zm0 0"/></clipPath><clipPath id="f"><path d="M1202 0h41v35h-41Zm0 0"/></clipPath><clipPath id="g"><path d="m1236.48-2.668 8.122 9.828-36.418 30.102-8.125-9.825Zm0 0"/></clipPath><clipPath id="h"><path d="m1236.48-2.668 8.122 9.828-36.418 30.102-8.125-9.825Zm0 0"/></clipPath><clipPath id="i"><path d="M27 132h41v36H27Zm0 0"/></clipPath><clipPath id="j"><path d="m61.59 129.555 8.125 9.828-36.422 30.101-8.121-9.828Zm0 0"/></clipPath><clipPath id="k"><path d="m61.59 129.555 8.125 9.828-36.422 30.101-8.121-9.828Zm0 0"/></clipPath><clipPath id="l"><path d="M1202 112h41v35h-41Zm0 0"/></clipPath><clipPath id="m"><path d="m1236.48 109.484 8.122 9.825-36.418 30.105-8.125-9.828Zm0 0"/></clipPath><clipPath id="n"><path d="m1236.48 109.484 8.122 9.825-36.418 30.105-8.125-9.828Zm0 0"/></clipPath><clipPath id="o"><path d="M98 43h41v36H98Zm0 0"/></clipPath><clipPath id="p"><path d="m132.664 40.855 8.125 9.829-36.422 30.101-8.12-9.828Zm0 0"/></clipPath><clipPath id="q"><path d="m132.664 40.855 8.125 9.829-36.422 30.101-8.12-9.828Zm0 0"/></clipPath><clipPath id="r"><path d="M1273 23h41v36h-41Zm0 0"/></clipPath><clipPath id="s"><path d="m1307.555 20.785 8.12 9.828-36.417 30.102-8.125-9.828Zm0 0"/></clipPath><clipPath id="t"><path d="m1307.555 20.785 8.12 9.828-36.417 30.102-8.125-9.828Zm0 0"/></clipPath><clipPath id="u"><path d="M16 244h40v36H16Zm0 0"/></clipPath><clipPath id="v"><path d="m50.36 241.703 8.124 9.828-36.422 30.102-8.12-9.828Zm0 0"/></clipPath><clipPath id="w"><path d="m50.36 241.703 8.124 9.828-36.422 30.102-8.12-9.828Zm0 0"/></clipPath><clipPath id="x"><path d="M1191 224h40v36h-40Zm0 0"/></clipPath><clipPath id="y"><path d="m1225.246 221.633 8.125 9.828-36.422 30.101-8.12-9.828Zm0 0"/></clipPath><clipPath id="z"><path d="m1225.246 221.633 8.125 9.828-36.422 30.101-8.12-9.828Zm0 0"/></clipPath><clipPath id="A"><path d="M98 284h41v36H98Zm0 0"/></clipPath><clipPath id="B"><path d="m132.664 281.848 8.125 9.828-36.422 30.101-8.12-9.828Zm0 0"/></clipPath><clipPath id="C"><path d="m132.664 281.848 8.125 9.828-36.422 30.101-8.12-9.828Zm0 0"/></clipPath><clipPath id="D"><path d="M1296 264h40v36h-40Zm0 0"/></clipPath><clipPath id="E"><path d="m1329.918 261.777 8.125 9.825-36.422 30.105-8.121-9.828Zm0 0"/></clipPath><clipPath id="F"><path d="m1329.918 261.777 8.125 9.825-36.422 30.105-8.121-9.828Zm0 0"/></clipPath><clipPath id="G"><path d="M0 356h34v36H0Zm0 0"/></clipPath><clipPath id="H"><path d="m27.992 353.848 8.125 9.828-36.422 30.101-8.12-9.828Zm0 0"/></clipPath><clipPath id="I"><path d="m27.992 353.848 8.125 9.828-36.422 30.101-8.12-9.828Zm0 0"/></clipPath><clipPath id="J"><path d="M1169 336h40v36h-40Zm0 0"/></clipPath><clipPath id="K"><path d="m1202.883 333.777 8.12 9.825-36.417 30.105-8.125-9.828Zm0 0"/></clipPath><clipPath id="L"><path d="m1202.883 333.777 8.12 9.825-36.417 30.105-8.125-9.828Zm0 0"/></clipPath><clipPath id="M"><path d="M121 152h40v36h-40Zm0 0"/></clipPath><clipPath id="N"><path d="m155.031 149.625 8.121 9.828-36.418 30.102-8.125-9.825Zm0 0"/></clipPath><clipPath id="O"><path d="m155.031 149.625 8.121 9.828-36.418 30.102-8.125-9.825Zm0 0"/></clipPath><clipPath id="P"><path d="M1296 132h40v36h-40Zm0 0"/></clipPath><clipPath id="Q"><path d="m1329.918 129.555 8.125 9.828-36.422 30.101-8.121-9.828Zm0 0"/></clipPath><clipPath id="R"><path d="m1329.918 129.555 8.125 9.828-36.422 30.101-8.121-9.828Zm0 0"/></clipPath><clipPath id="S"><path d="M61 396h40v36H61Zm0 0"/></clipPath><clipPath id="T"><path d="m95.09 393.992 8.125 9.828-36.422 30.102-8.121-9.828Zm0 0"/></clipPath><clipPath id="U"><path d="m95.09 393.992 8.125 9.828-36.422 30.102-8.121-9.828Zm0 0"/></clipPath><clipPath id="V"><path d="M1236 376h40v36h-40Zm0 0"/></clipPath><clipPath id="W"><path d="m1269.98 373.918 8.122 9.828-36.418 30.102-8.125-9.825Zm0 0"/></clipPath><clipPath id="X"><path d="m1269.98 373.918 8.122 9.828-36.418 30.102-8.125-9.825Zm0 0"/></clipPath><clipPath id="Y"><path d="M0 490h23v35H0Zm0 0"/></clipPath><clipPath id="Z"><path d="m16.86 487.438 8.12 9.828-36.418 30.101-8.124-9.828Zm0 0"/></clipPath><clipPath id="aa"><path d="m16.86 487.438 8.12 9.828-36.418 30.101-8.124-9.828Zm0 0"/></clipPath><clipPath id="ab"><path d="M1157 470h41v35h-41Zm0 0"/></clipPath><clipPath id="ac"><path d="m1191.746 467.367 8.125 9.828-36.422 30.102-8.12-9.828Zm0 0"/></clipPath><clipPath id="ad"><path d="m1191.746 467.367 8.125 9.828-36.422 30.102-8.12-9.828Zm0 0"/></clipPath><clipPath id="ae"><path d="M165 316h41v36h-41Zm0 0"/></clipPath><clipPath id="af"><path d="m199.762 313.703 8.125 9.828-36.422 30.102-8.121-9.828Zm0 0"/></clipPath><clipPath id="ag"><path d="m199.762 313.703 8.125 9.828-36.422 30.102-8.121-9.828Zm0 0"/></clipPath><clipPath id="ah"><path d="M1397 276h41v36h-41Zm0 0"/></clipPath><clipPath id="ai"><path d="m1431.727 273.559 8.12 9.828-36.417 30.105-8.125-9.828Zm0 0"/></clipPath><clipPath id="aj"><path d="m1431.727 273.559 8.12 9.828-36.417 30.105-8.125-9.828Zm0 0"/></clipPath><clipPath id="ak"><path d="M106 502h40v35h-40Zm0 0"/></clipPath><clipPath id="al"><path d="m139.824 499.438 8.121 9.828-36.418 30.101-8.125-9.828Zm0 0"/></clipPath><clipPath id="am"><path d="m139.824 499.438 8.121 9.828-36.418 30.101-8.125-9.828Zm0 0"/></clipPath><clipPath id="an"><path d="M1280 482h41v35h-41Zm0 0"/></clipPath><clipPath id="ao"><path d="m1314.71 479.367 8.122 9.828-36.418 30.102-8.125-9.828Zm0 0"/></clipPath><clipPath id="ap"><path d="m1314.71 479.367 8.122 9.828-36.418 30.102-8.125-9.828Zm0 0"/></clipPath><clipPath id="aq"><path d="M210 192h41v36h-41Zm0 0"/></clipPath><clipPath id="ar"><path d="m244.496 189.77 8.121 9.828-36.418 30.101-8.125-9.828Zm0 0"/></clipPath><clipPath id="as"><path d="m244.496 189.77 8.121 9.828-36.418 30.101-8.125-9.828Zm0 0"/></clipPath><clipPath id="at"><path d="M1385 172h41v36h-41Zm0 0"/></clipPath><clipPath id="au"><path d="m1419.383 169.7 8.12 9.827-36.417 30.102-8.125-9.828Zm0 0"/></clipPath><clipPath id="av"><path d="m1419.383 169.7 8.12 9.827-36.417 30.102-8.125-9.828Zm0 0"/></clipPath><clipPath id="aw"><path d="M210 43h41v36h-41Zm0 0"/></clipPath><clipPath id="ax"><path d="m244.496 40.855 8.121 9.829L216.2 80.785l-8.125-9.828Zm0 0"/></clipPath><clipPath id="ay"><path d="m244.496 40.855 8.121 9.829L216.2 80.785l-8.125-9.828Zm0 0"/></clipPath><clipPath id="az"><path d="M1385 23h41v36h-41Zm0 0"/></clipPath><clipPath id="aA"><path d="m1419.383 20.785 8.12 9.828-36.417 30.102-8.125-9.828Zm0 0"/></clipPath><clipPath id="aB"><path d="m1419.383 20.785 8.12 9.828-36.417 30.102-8.125-9.828Zm0 0"/></clipPath><clipPath id="aC"><path d="M0 598h23v36H0Zm0 0"/></clipPath><clipPath id="aD"><path d="m16.86 595.652 8.12 9.828-36.418 30.102-8.124-9.824Zm0 0"/></clipPath><clipPath id="aE"><path d="m16.86 595.652 8.12 9.828-36.418 30.102-8.124-9.824Zm0 0"/></clipPath><clipPath id="aF"><path d="M1169 598h40v36h-40Zm0 0"/></clipPath><clipPath id="aG"><path d="m1202.883 595.652 8.12 9.828-36.417 30.102-8.125-9.824Zm0 0"/></clipPath><clipPath id="aH"><path d="m1202.883 595.652 8.12 9.828-36.417 30.102-8.125-9.824Zm0 0"/></clipPath><clipPath id="aI"><path d="M165 396h41v36h-41Zm0 0"/></clipPath><clipPath id="aJ"><path d="m199.762 393.992 8.125 9.828-36.422 30.102-8.121-9.828Zm0 0"/></clipPath><clipPath id="aK"><path d="m199.762 393.992 8.125 9.828-36.422 30.102-8.121-9.828Zm0 0"/></clipPath><clipPath id="aL"><path d="M1340 376h41v36h-41Zm0 0"/></clipPath><clipPath id="aM"><path d="m1374.652 373.918 8.121 9.828-36.418 30.102-8.125-9.825Zm0 0"/></clipPath><clipPath id="aN"><path d="m1374.652 373.918 8.121 9.828-36.418 30.102-8.125-9.825Zm0 0"/></clipPath><clipPath id="aO"><path d="M106 611h40v36h-40Zm0 0"/></clipPath><clipPath id="aP"><path d="m139.824 608.582 8.121 9.828-36.418 30.102-8.125-9.828Zm0 0"/></clipPath><clipPath id="aQ"><path d="m139.824 608.582 8.121 9.828-36.418 30.102-8.125-9.828Zm0 0"/></clipPath><clipPath id="aR"><path d="M1280 591h41v36h-41Zm0 0"/></clipPath><clipPath id="aS"><path d="m1314.71 588.512 8.122 9.824-36.418 30.105-8.125-9.828Zm0 0"/></clipPath><clipPath id="aT"><path d="m1314.71 588.512 8.122 9.824-36.418 30.105-8.125-9.828Zm0 0"/></clipPath><clipPath id="aU"><path d="M210 610h41v36h-41Zm0 0"/></clipPath><clipPath id="aV"><path d="m244.496 608.227 8.121 9.828-36.418 30.101-8.125-9.828Zm0 0"/></clipPath><clipPath id="aW"><path d="m244.496 608.227 8.121 9.828-36.418 30.101-8.125-9.828Zm0 0"/></clipPath><clipPath id="aX"><path d="M1420 416h20v36h-20Zm0 0"/></clipPath><clipPath id="aY"><path d="m1454.09 414.063 8.125 9.828-36.422 30.101-8.121-9.828Zm0 0"/></clipPath><clipPath id="aZ"><path d="m1454.09 414.063 8.125 9.828-36.422 30.101-8.121-9.828Zm0 0"/></clipPath><clipPath id="ba"><path d="M27 678h41v36H27Zm0 0"/></clipPath><clipPath id="bb"><path d="m61.59 675.512 8.125 9.824-36.422 30.105-8.121-9.828Zm0 0"/></clipPath><clipPath id="bc"><path d="m61.59 675.512 8.125 9.824-36.422 30.105-8.121-9.828Zm0 0"/></clipPath><clipPath id="bd"><path d="M1247 691h40v36h-40Zm0 0"/></clipPath><clipPath id="be"><path d="m1281.21 688.855 8.122 9.829-36.418 30.101-8.125-9.828Zm0 0"/></clipPath><clipPath id="bf"><path d="m1281.21 688.855 8.122 9.829-36.418 30.101-8.125-9.828Zm0 0"/></clipPath><clipPath id="bg"><path d="M106 742h40v36h-40Zm0 0"/></clipPath><clipPath id="bh"><path d="m139.824 739.652 8.121 9.828-36.418 30.102-8.125-9.824Zm0 0"/></clipPath><clipPath id="bi"><path d="m139.824 739.652 8.121 9.828-36.418 30.102-8.125-9.824Zm0 0"/></clipPath><clipPath id="bj"><path d="M1318 731h40v36h-40Zm0 0"/></clipPath><clipPath id="bk"><path d="m1352.285 729 8.121 9.828-36.418 30.102-8.125-9.828Zm0 0"/></clipPath><clipPath id="bl"><path d="m1352.285 729 8.121 9.828-36.418 30.102-8.125-9.828Zm0 0"/></clipPath><clipPath id="bm"><path d="M188 530h40v36h-40Zm0 0"/></clipPath><clipPath id="bn"><path d="m222.129 527.582 8.121 9.828-36.418 30.102-8.125-9.828Zm0 0"/></clipPath><clipPath id="bo"><path d="m222.129 527.582 8.121 9.828-36.418 30.102-8.125-9.828Zm0 0"/></clipPath><clipPath id="bp"><path d="M1363 510h40v36h-40Zm0 0"/></clipPath><clipPath id="bq"><path d="m1397.016 507.512 8.125 9.824-36.422 30.105-8.121-9.828Zm0 0"/></clipPath><clipPath id="br"><path d="m1397.016 507.512 8.125 9.824-36.422 30.105-8.121-9.828Zm0 0"/></clipPath><clipPath id="bs"><path d="M2 782h41v28H2Zm0 0"/></clipPath><clipPath id="bt"><path d="m36.457 779.797 8.121 9.828L8.16 819.727l-8.125-9.829Zm0 0"/></clipPath><clipPath id="bu"><path d="m36.457 779.797 8.121 9.828L8.16 819.727l-8.125-9.829Zm0 0"/></clipPath><clipPath id="bv"><path d="M1177 762h40v36h-40Zm0 0"/></clipPath><clipPath id="bw"><path d="m1211.344 759.727 8.125 9.828-36.422 30.101-8.121-9.828Zm0 0"/></clipPath><clipPath id="bx"><path d="m1211.344 759.727 8.125 9.828-36.422 30.101-8.121-9.828Zm0 0"/></clipPath><clipPath id="by"><path d="M210 682h41v35h-41Zm0 0"/></clipPath><clipPath id="bz"><path d="m244.496 679.438 8.121 9.828-36.418 30.101-8.125-9.828Zm0 0"/></clipPath><clipPath id="bA"><path d="m244.496 679.438 8.121 9.828-36.418 30.101-8.125-9.828Zm0 0"/></clipPath><clipPath id="bB"><path d="M1385 662h41v35h-41Zm0 0"/></clipPath><clipPath id="bC"><path d="m1419.383 659.367 8.12 9.828-36.417 30.102-8.125-9.828Zm0 0"/></clipPath><clipPath id="bD"><path d="m1419.383 659.367 8.12 9.828-36.417 30.102-8.125-9.828Zm0 0"/></clipPath><clipPath id="bE"><path d="M210 792h41v18h-41Zm0 0"/></clipPath><clipPath id="bF"><path d="m244.496 789.93 8.121 9.824-36.418 30.105-8.125-9.828Zm0 0"/></clipPath><clipPath id="bG"><path d="m244.496 789.93 8.121 9.824-36.418 30.105-8.125-9.828Zm0 0"/></clipPath><clipPath id="bH"><path d="M1385 782h41v28h-41Zm0 0"/></clipPath><clipPath id="bI"><path d="m1419.383 779.797 8.12 9.828-36.417 30.102-8.125-9.829Zm0 0"/></clipPath><clipPath id="bJ"><path d="m1419.383 779.797 8.12 9.828-36.417 30.102-8.125-9.829Zm0 0"/></clipPath></defs><path fill="#fff" d="M-144-81h1728v972H-144z"/><path fill="#2e2787" d="M-144-81h1728v972H-144z"/><g clip-path="url(#a)"><g clip-path="url(#b)"><path fill="#2e2787" d="M648.434 633.527h49.207v49.211h-49.207Zm0 0"/></g></g><g clip-path="url(#c)"><g clip-path="url(#d)"><g clip-path="url(#e)"><path fill="#94a3b8" d="M-15.46 52.543a6.489 6.489 0 0 1 .866-9.137L11.86 21.543a6.485 6.485 0 0 1 9.137.867 6.484 6.484 0 0 1-.867 9.133L-6.324 53.41a6.489 6.489 0 0 1-9.137-.867Zm0 0"/></g></g></g><g clip-path="url(#f)"><g clip-path="url(#g)"><g clip-path="url(#h)"><path fill="#94a3b8" d="M1204.16 32.469a6.48 6.48 0 0 1 .867-9.133l26.453-21.867a6.484 6.484 0 0 1 9.133.867 6.485 6.485 0 0 1-.867 9.137l-26.453 21.863a6.48 6.48 0 0 1-9.133-.867Zm0 0"/></g></g></g><g clip-path="url(#i)"><g clip-path="url(#j)"><g clip-path="url(#k)"><path fill="#94a3b8" d="M29.27 164.691a6.489 6.489 0 0 1 .867-9.136L56.59 133.69a6.485 6.485 0 0 1 9.137.868 6.489 6.489 0 0 1-.868 9.136L38.406 165.56a6.489 6.489 0 0 1-9.136-.868Zm0 0"/></g></g></g><g clip-path="url(#l)"><g clip-path="url(#m)"><g clip-path="url(#n)"><path fill="#94a3b8" d="M1204.16 144.617a6.48 6.48 0 0 1 .867-9.133l26.453-21.863a6.48 6.48 0 0 1 9.133.867 6.48 6.48 0 0 1-.867 9.133l-26.453 21.867a6.485 6.485 0 0 1-9.133-.87Zm0 0"/></g></g></g><g clip-path="url(#o)"><g clip-path="url(#p)"><g clip-path="url(#q)"><path fill="#94a3b8" d="M100.344 75.992a6.49 6.49 0 0 1 .87-9.137l26.45-21.863a6.489 6.489 0 0 1 9.137.867 6.485 6.485 0 0 1-.867 9.137L109.48 76.86a6.486 6.486 0 0 1-9.136-.867Zm0 0"/></g></g></g><g clip-path="url(#r)"><g clip-path="url(#s)"><g clip-path="url(#t)"><path fill="#94a3b8" d="M1275.234 55.922a6.485 6.485 0 0 1 .868-9.137l26.453-21.863a6.49 6.49 0 1 1 8.266 10.004l-26.454 21.863a6.484 6.484 0 0 1-9.133-.867Zm0 0"/></g></g></g><g clip-path="url(#u)"><g clip-path="url(#v)"><g clip-path="url(#w)"><path fill="#94a3b8" d="M18.04 276.84a6.49 6.49 0 0 1 .866-9.137L45.36 245.84a6.489 6.489 0 0 1 9.137.867 6.489 6.489 0 0 1-.867 9.137l-26.453 21.863a6.485 6.485 0 0 1-9.137-.867Zm0 0"/></g></g></g><g clip-path="url(#x)"><g clip-path="url(#y)"><g clip-path="url(#z)"><path fill="#94a3b8" d="M1192.926 256.77a6.49 6.49 0 0 1 .87-9.137l26.454-21.863a6.48 6.48 0 0 1 9.133.867 6.486 6.486 0 0 1-.867 9.136l-26.454 21.864a6.49 6.49 0 0 1-9.136-.867Zm0 0"/></g></g></g><g clip-path="url(#A)"><g clip-path="url(#B)"><g clip-path="url(#C)"><path fill="#94a3b8" d="M100.344 316.984a6.49 6.49 0 0 1 .87-9.136l26.45-21.864a6.489 6.489 0 0 1 9.137.868 6.485 6.485 0 0 1-.867 9.136l-26.454 21.864a6.49 6.49 0 0 1-9.136-.868Zm0 0"/></g></g></g><g clip-path="url(#D)"><g clip-path="url(#E)"><g clip-path="url(#F)"><path fill="#94a3b8" d="M1297.598 296.914a6.49 6.49 0 0 1 .87-9.137l26.45-21.863a6.485 6.485 0 0 1 9.137.867 6.48 6.48 0 0 1-.868 9.133l-26.453 21.867a6.493 6.493 0 0 1-9.136-.867Zm0 0"/></g></g></g><g clip-path="url(#G)"><g clip-path="url(#H)"><g clip-path="url(#I)"><path fill="#94a3b8" d="M-4.324 388.984a6.485 6.485 0 0 1 .867-9.136l26.453-21.864a6.484 6.484 0 0 1 9.133.868 6.485 6.485 0 0 1-.867 9.136L4.809 389.852a6.484 6.484 0 0 1-9.133-.868Zm0 0"/></g></g></g><g clip-path="url(#J)"><g clip-path="url(#K)"><g clip-path="url(#L)"><path fill="#94a3b8" d="M1170.563 368.914a6.485 6.485 0 0 1 .867-9.137l26.453-21.863a6.486 6.486 0 0 1 9.137.867 6.485 6.485 0 0 1-.872 9.133l-26.449 21.867a6.492 6.492 0 0 1-9.137-.867Zm0 0"/></g></g></g><g clip-path="url(#M)"><g clip-path="url(#N)"><g clip-path="url(#O)"><path fill="#94a3b8" d="M122.71 184.762a6.484 6.484 0 0 1 .868-9.133l26.453-21.867a6.489 6.489 0 0 1 9.137.867 6.489 6.489 0 0 1-.867 9.137l-26.453 21.863a6.485 6.485 0 0 1-9.137-.867Zm0 0"/></g></g></g><g clip-path="url(#P)"><g clip-path="url(#Q)"><g clip-path="url(#R)"><path fill="#94a3b8" d="M1297.598 164.691a6.49 6.49 0 0 1 .87-9.136l26.45-21.864a6.485 6.485 0 0 1 9.137.868 6.485 6.485 0 0 1-.868 9.136l-26.453 21.864a6.49 6.49 0 0 1-9.136-.868Zm0 0"/></g></g></g><g clip-path="url(#S)"><g clip-path="url(#T)"><g clip-path="url(#U)"><path fill="#94a3b8" d="M62.77 429.129a6.49 6.49 0 0 1 .87-9.137l26.45-21.863a6.485 6.485 0 0 1 9.137.867 6.486 6.486 0 0 1-.868 9.137l-26.453 21.863a6.49 6.49 0 0 1-9.136-.867Zm0 0"/></g></g></g><g clip-path="url(#V)"><g clip-path="url(#W)"><g clip-path="url(#X)"><path fill="#94a3b8" d="M1237.66 409.055a6.48 6.48 0 0 1 .867-9.133l26.453-21.867a6.493 6.493 0 0 1 9.137.867 6.49 6.49 0 0 1-.87 9.137l-26.454 21.863a6.48 6.48 0 0 1-9.133-.867Zm0 0"/></g></g></g><g clip-path="url(#Y)"><g clip-path="url(#Z)"><g clip-path="url(#aa)"><path fill="#94a3b8" d="M-15.46 522.574a6.49 6.49 0 0 1 .866-9.136l26.453-21.864a6.489 6.489 0 0 1 9.137.867 6.489 6.489 0 0 1-.867 9.137l-26.453 21.863a6.485 6.485 0 0 1-9.137-.867Zm0 0"/></g></g></g><g clip-path="url(#ab)"><g clip-path="url(#ac)"><g clip-path="url(#ad)"><path fill="#94a3b8" d="M1159.426 502.504a6.49 6.49 0 0 1 .87-9.137l26.45-21.863a6.485 6.485 0 0 1 9.137.867 6.486 6.486 0 0 1-.867 9.137l-26.454 21.863a6.49 6.49 0 0 1-9.136-.867Zm0 0"/></g></g></g><g clip-path="url(#ae)"><g clip-path="url(#af)"><g clip-path="url(#ag)"><path fill="#94a3b8" d="M167.441 348.84a6.493 6.493 0 0 1 .868-9.137l26.453-21.863a6.489 6.489 0 0 1 9.136.867 6.485 6.485 0 0 1-.867 9.137l-26.453 21.863a6.486 6.486 0 0 1-9.137-.867Zm0 0"/></g></g></g><g clip-path="url(#ah)"><g clip-path="url(#ai)"><g clip-path="url(#aj)"><path fill="#94a3b8" d="M1399.406 308.695a6.48 6.48 0 0 1 .867-9.132l26.454-21.868a6.485 6.485 0 0 1 9.132.871 6.48 6.48 0 0 1-.867 9.133l-26.453 21.863a6.48 6.48 0 0 1-9.133-.867Zm0 0"/></g></g></g><g clip-path="url(#ak)"><g clip-path="url(#al)"><g clip-path="url(#am)"><path fill="#94a3b8" d="M107.504 534.574a6.486 6.486 0 0 1 .867-9.136l26.453-21.864a6.484 6.484 0 0 1 9.133.867 6.485 6.485 0 0 1-.867 9.137l-26.453 21.863a6.48 6.48 0 0 1-9.133-.867Zm0 0"/></g></g></g><g clip-path="url(#an)"><g clip-path="url(#ao)"><g clip-path="url(#ap)"><path fill="#94a3b8" d="M1282.39 514.504a6.489 6.489 0 0 1 .868-9.137l26.453-21.863a6.485 6.485 0 0 1 9.137.867 6.49 6.49 0 0 1-.868 9.137l-26.453 21.863a6.489 6.489 0 0 1-9.136-.867Zm0 0"/></g></g></g><g clip-path="url(#aq)"><g clip-path="url(#ar)"><g clip-path="url(#as)"><path fill="#94a3b8" d="M212.176 224.906a6.485 6.485 0 0 1 .867-9.136l26.453-21.864a6.484 6.484 0 0 1 9.133.867 6.485 6.485 0 0 1-.867 9.137l-26.453 21.863a6.48 6.48 0 0 1-9.133-.867Zm0 0"/></g></g></g><g clip-path="url(#at)"><g clip-path="url(#au)"><g clip-path="url(#av)"><path fill="#94a3b8" d="M1387.063 204.836a6.489 6.489 0 0 1 .867-9.137l26.453-21.863a6.485 6.485 0 0 1 9.137.867 6.49 6.49 0 0 1-.868 9.137l-26.453 21.863a6.489 6.489 0 0 1-9.137-.867Zm0 0"/></g></g></g><g clip-path="url(#aw)"><g clip-path="url(#ax)"><g clip-path="url(#ay)"><path fill="#94a3b8" d="M212.176 75.992a6.486 6.486 0 0 1 .867-9.137l26.453-21.863a6.484 6.484 0 0 1 9.133.867 6.485 6.485 0 0 1-.867 9.137L221.309 76.86a6.48 6.48 0 0 1-9.133-.867Zm0 0"/></g></g></g><g clip-path="url(#az)"><g clip-path="url(#aA)"><g clip-path="url(#aB)"><path fill="#94a3b8" d="M1387.063 55.922a6.489 6.489 0 0 1 .867-9.137l26.453-21.863a6.485 6.485 0 0 1 9.137.867 6.49 6.49 0 0 1-.868 9.137L1396.2 56.789a6.489 6.489 0 0 1-9.137-.867Zm0 0"/></g></g></g><g clip-path="url(#aC)"><g clip-path="url(#aD)"><g clip-path="url(#aE)"><path fill="#94a3b8" d="M-15.46 630.79a6.49 6.49 0 0 1 .866-9.138L11.86 599.79a6.489 6.489 0 0 1 9.137.867 6.489 6.489 0 0 1-.867 9.137l-26.453 21.863a6.485 6.485 0 0 1-9.137-.867Zm0 0"/></g></g></g><g clip-path="url(#aF)"><g clip-path="url(#aG)"><g clip-path="url(#aH)"><path fill="#94a3b8" d="M1170.563 630.79a6.486 6.486 0 0 1 .867-9.138l26.453-21.863a6.49 6.49 0 1 1 8.265 10.004l-26.449 21.863a6.485 6.485 0 0 1-9.137-.867Zm0 0"/></g></g></g><g clip-path="url(#aI)"><g clip-path="url(#aJ)"><g clip-path="url(#aK)"><path fill="#94a3b8" d="M167.441 429.129a6.492 6.492 0 0 1 .868-9.137l26.453-21.863a6.485 6.485 0 0 1 9.136.867 6.486 6.486 0 0 1-.867 9.137l-26.453 21.863a6.49 6.49 0 0 1-9.137-.867Zm0 0"/></g></g></g><g clip-path="url(#aL)"><g clip-path="url(#aM)"><g clip-path="url(#aN)"><path fill="#94a3b8" d="M1342.332 409.055a6.48 6.48 0 0 1 .867-9.133l26.453-21.867a6.488 6.488 0 0 1 9.133.867 6.485 6.485 0 0 1-.867 9.137l-26.453 21.863a6.48 6.48 0 0 1-9.133-.867Zm0 0"/></g></g></g><g clip-path="url(#aO)"><g clip-path="url(#aP)"><g clip-path="url(#aQ)"><path fill="#94a3b8" d="M107.504 643.719a6.485 6.485 0 0 1 .867-9.137l26.453-21.863a6.48 6.48 0 0 1 9.133.867 6.485 6.485 0 0 1-.867 9.137l-26.453 21.863a6.484 6.484 0 0 1-9.133-.867Zm0 0"/></g></g></g><g clip-path="url(#aR)"><g clip-path="url(#aS)"><g clip-path="url(#aT)"><path fill="#94a3b8" d="M1282.39 623.645a6.484 6.484 0 0 1 .868-9.133l26.453-21.867a6.49 6.49 0 0 1 9.137.87 6.484 6.484 0 0 1-.868 9.133l-26.453 21.868a6.49 6.49 0 0 1-9.136-.871Zm0 0"/></g></g></g><g clip-path="url(#aU)"><g clip-path="url(#aV)"><g clip-path="url(#aW)"><path fill="#94a3b8" d="M212.176 643.363a6.485 6.485 0 0 1 .867-9.136l26.453-21.864a6.48 6.48 0 0 1 9.133.867 6.48 6.48 0 0 1-.867 9.133l-26.453 21.867a6.484 6.484 0 0 1-9.133-.867Zm0 0"/></g></g></g><g clip-path="url(#aX)"><g clip-path="url(#aY)"><g clip-path="url(#aZ)"><path fill="#94a3b8" d="M1421.77 449.2a6.49 6.49 0 0 1 .87-9.137l26.45-21.864a6.489 6.489 0 0 1 9.137.867 6.485 6.485 0 0 1-.868 9.137l-26.453 21.863a6.486 6.486 0 0 1-9.136-.867Zm0 0"/></g></g></g><g clip-path="url(#ba)"><g clip-path="url(#bb)"><g clip-path="url(#bc)"><path fill="#94a3b8" d="M29.27 710.645a6.484 6.484 0 0 1 .867-9.133l26.453-21.867a6.49 6.49 0 0 1 9.137.87 6.484 6.484 0 0 1-.868 9.133l-26.453 21.868a6.49 6.49 0 0 1-9.136-.871Zm0 0"/></g></g></g><g clip-path="url(#bd)"><g clip-path="url(#be)"><g clip-path="url(#bf)"><path fill="#94a3b8" d="M1248.89 723.992a6.486 6.486 0 0 1 .868-9.137l26.453-21.863a6.489 6.489 0 1 1 8.27 10.004l-26.454 21.863a6.485 6.485 0 0 1-9.136-.867Zm0 0"/></g></g></g><g clip-path="url(#bg)"><g clip-path="url(#bh)"><g clip-path="url(#bi)"><path fill="#94a3b8" d="M107.504 774.79a6.486 6.486 0 0 1 .867-9.138l26.453-21.863a6.484 6.484 0 0 1 9.133.867 6.485 6.485 0 0 1-.867 9.137l-26.453 21.863a6.48 6.48 0 0 1-9.133-.867Zm0 0"/></g></g></g><g clip-path="url(#bj)"><g clip-path="url(#bk)"><g clip-path="url(#bl)"><path fill="#94a3b8" d="M1319.965 764.137a6.489 6.489 0 0 1 .867-9.137l26.453-21.863a6.489 6.489 0 0 1 9.137.867 6.489 6.489 0 0 1-.867 9.137l-26.453 21.863a6.489 6.489 0 0 1-9.137-.867Zm0 0"/></g></g></g><g clip-path="url(#bm)"><g clip-path="url(#bn)"><g clip-path="url(#bo)"><path fill="#94a3b8" d="M189.809 562.719a6.489 6.489 0 0 1 .867-9.137l26.453-21.863a6.485 6.485 0 0 1 9.137.867 6.489 6.489 0 0 1-.868 9.137l-26.453 21.863a6.489 6.489 0 0 1-9.136-.867Zm0 0"/></g></g></g><g clip-path="url(#bp)"><g clip-path="url(#bq)"><g clip-path="url(#br)"><path fill="#94a3b8" d="M1364.695 542.645a6.488 6.488 0 0 1 .868-9.133l26.453-21.867a6.49 6.49 0 0 1 9.136.87 6.48 6.48 0 0 1-.867 9.133l-26.453 21.868a6.49 6.49 0 0 1-9.137-.871Zm0 0"/></g></g></g><g clip-path="url(#bs)"><g clip-path="url(#bt)"><g clip-path="url(#bu)"><path fill="#94a3b8" d="M4.137 814.934a6.489 6.489 0 0 1 .867-9.137l26.453-21.863a6.489 6.489 0 0 1 9.137.867 6.489 6.489 0 0 1-.867 9.136l-26.454 21.864a6.485 6.485 0 0 1-9.136-.867Zm0 0"/></g></g></g><g clip-path="url(#bv)"><g clip-path="url(#bw)"><g clip-path="url(#bx)"><path fill="#94a3b8" d="M1179.023 794.863a6.49 6.49 0 0 1 .872-9.136l26.449-21.864a6.485 6.485 0 0 1 9.136.867 6.48 6.48 0 0 1-.867 9.133l-26.453 21.867a6.49 6.49 0 0 1-9.137-.867Zm0 0"/></g></g></g><g clip-path="url(#by)"><g clip-path="url(#bz)"><g clip-path="url(#bA)"><path fill="#94a3b8" d="M212.176 714.574a6.486 6.486 0 0 1 .867-9.136l26.453-21.864a6.484 6.484 0 0 1 9.133.867 6.485 6.485 0 0 1-.867 9.137l-26.453 21.863a6.48 6.48 0 0 1-9.133-.867Zm0 0"/></g></g></g><g clip-path="url(#bB)"><g clip-path="url(#bC)"><g clip-path="url(#bD)"><path fill="#94a3b8" d="M1387.063 694.504a6.489 6.489 0 0 1 .867-9.137l26.453-21.863a6.485 6.485 0 0 1 9.137.867 6.49 6.49 0 0 1-.868 9.137L1396.2 695.37a6.489 6.489 0 0 1-9.137-.867Zm0 0"/></g></g></g><g clip-path="url(#bE)"><g clip-path="url(#bF)"><g clip-path="url(#bG)"><path fill="#94a3b8" d="M212.176 825.066a6.485 6.485 0 0 1 .867-9.136l26.453-21.864a6.48 6.48 0 0 1 9.133.868 6.48 6.48 0 0 1-.867 9.132l-26.453 21.868a6.488 6.488 0 0 1-9.133-.868Zm0 0"/></g></g></g><g clip-path="url(#bH)"><g clip-path="url(#bI)"><g clip-path="url(#bJ)"><path fill="#94a3b8" d="M1387.063 814.934a6.489 6.489 0 0 1 .867-9.137l26.453-21.863a6.489 6.489 0 0 1 9.137.867 6.489 6.489 0 0 1-.868 9.136l-26.453 21.864a6.485 6.485 0 0 1-9.137-.867Zm0 0"/></g></g></g></svg>