<svg width="21" height="21" viewBox="0 0 21 21" fill="none" xmlns="http://www.w3.org/2000/svg">
<path d="M7.24304 3V4.25M4.11804 7.375H2.86804M17.868 7.375H16.618M4.11804 10.5H2.86804M17.868 10.5H16.618M4.11804 13.625H2.86804M17.868 13.625H16.618M7.24304 16.75V18M10.368 3V4.25M10.368 16.75V18M13.493 3V4.25M13.493 16.75V18M5.99304 16.75H14.743C15.2403 16.75 15.7172 16.5525 16.0689 16.2008C16.4205 15.8492 16.618 15.3723 16.618 14.875V6.125C16.618 5.62772 16.4205 5.15081 16.0689 4.79917C15.7172 4.44754 15.2403 4.25 14.743 4.25H5.99304C5.49576 4.25 5.01885 4.44754 4.66722 4.79917C4.31559 5.15081 4.11804 5.62772 4.11804 6.125V14.875C4.11804 15.3723 4.31559 15.8492 4.66722 16.2008C5.01885 16.5525 5.49576 16.75 5.99304 16.75ZM6.61804 6.75H14.118V14.25H6.61804V6.75Z" stroke="black" stroke-width="1.5" stroke-linecap="round" stroke-linejoin="round"/>
</svg>
