<svg width="21" height="20" viewBox="0 0 21 20" fill="none" xmlns="http://www.w3.org/2000/svg">
<g clip-path="url(#clip0_220_174)">
<path d="M5.36804 2.50002V5.00002H2.86804V2.50002H5.36804ZM1.61804 1.25002V6.25002H6.61804V1.25002H1.61804Z" fill="black"/>
<path d="M11.618 4.37502V6.87502H9.11804V4.37502H11.618ZM7.86804 3.12502V8.12502H12.868V3.12502H7.86804Z" fill="black"/>
<path d="M5.36804 10V12.5H2.86804V10H5.36804ZM1.61804 8.75002V13.75H6.61804V8.75002H1.61804Z" fill="black"/>
<path d="M14.118 6.25002V10H10.368V13.75H6.61804V18.75H19.118V6.25002H14.118ZM11.618 11.25H14.118V13.75H11.618V11.25ZM10.368 17.5H7.86804V15H10.368V17.5ZM14.118 17.5H11.618V15H14.118V17.5ZM17.868 17.5H15.368V15H17.868V17.5ZM17.868 13.75H15.368V11.25H17.868V13.75ZM15.368 10V7.50002H17.868V10H15.368Z" fill="black"/>
</g>
<defs>
<clipPath id="clip0_220_174">
<rect width="20" height="20" fill="white" transform="translate(0.368042 1.52588e-05)"/>
</clipPath>
</defs>
</svg>
