<svg width="24" height="24" viewBox="0 0 24 24" fill="none" xmlns="http://www.w3.org/2000/svg">
<g clip-path="url(#clip0_219_153)">
<path d="M11.9948 17.9286C13.5861 17.9286 15.1122 17.3266 16.2375 16.2549C17.3627 15.1833 17.9948 13.7298 17.9948 12.2143V10.7857M11.9948 17.9286C10.4035 17.9286 8.87739 17.3266 7.75217 16.2549C6.62695 15.1833 5.99481 13.7298 5.99481 12.2143V10.7857M11.9948 17.9286V21.5M8.24481 21.5H15.7448M11.9948 15.0715C11.1992 15.0715 10.4361 14.7704 9.87349 14.2346C9.31088 13.6988 8.99481 12.9721 8.99481 12.2143V4.35717C8.99481 3.59941 9.31088 2.87269 9.87349 2.33687C10.4361 1.80105 11.1992 1.50003 11.9948 1.50003C12.7905 1.50003 13.5535 1.80105 14.1161 2.33687C14.6787 2.87269 14.9948 3.59941 14.9948 4.35717V12.2143C14.9948 12.9721 14.6787 13.6988 14.1161 14.2346C13.5535 14.7704 12.7905 15.0715 11.9948 15.0715Z" stroke="black" stroke-width="1.5" stroke-linecap="round" stroke-linejoin="round"/>
</g>
<defs>
<clipPath id="clip0_219_153">
<rect width="24" height="24" fill="white" transform="translate(-0.00518799 3.05176e-05)"/>
</clipPath>
</defs>
</svg>
