<svg width="35" height="24" viewBox="0 0 35 24" fill="none" xmlns="http://www.w3.org/2000/svg">
<g clip-path="url(#clip0_219_153)">
<path d="M17.4948 17.9286C19.8155 17.9286 22.0411 17.3266 23.682 16.2549C25.3229 15.1833 26.2448 13.7298 26.2448 12.2143V10.7857M17.4948 17.9286C15.1742 17.9286 12.9486 17.3266 11.3076 16.2549C9.66668 15.1833 8.74481 13.7298 8.74481 12.2143V10.7857M17.4948 17.9286V21.5M12.0261 21.5H22.9636M17.4948 15.0715C16.3345 15.0715 15.2217 14.7704 14.4012 14.2346C13.5807 13.6988 13.1198 12.9721 13.1198 12.2143V4.35717C13.1198 3.59941 13.5807 2.87269 14.4012 2.33687C15.2217 1.80105 16.3345 1.50003 17.4948 1.50003C18.6551 1.50003 19.7679 1.80105 20.5884 2.33687C21.4089 2.87269 21.8698 3.59941 21.8698 4.35717V12.2143C21.8698 12.9721 21.4089 13.6988 20.5884 14.2346C19.7679 14.7704 18.6551 15.0715 17.4948 15.0715Z" stroke="black" stroke-width="1.5" stroke-linecap="round" stroke-linejoin="round"/>
</g>
<defs>
<clipPath id="clip0_219_153">
<rect width="35" height="24" fill="white" transform="translate(-0.00518799 3.05176e-05)"/>
</clipPath>
</defs>
</svg>
