<svg width="21" height="23" viewBox="0 0 21 23" fill="none" xmlns="http://www.w3.org/2000/svg">
<path fill-rule="evenodd" clip-rule="evenodd" d="M6.61802 10.5417C6.15779 10.5417 5.78469 10.9708 5.78469 11.5001C5.78469 12.0293 6.15779 12.4584 6.61802 12.4584C7.07825 12.4584 7.45135 12.0293 7.45135 11.5001C7.45135 10.9708 7.07825 10.5417 6.61802 10.5417ZM4.95135 11.5001C4.95135 10.4415 5.69755 9.58339 6.61802 9.58339C7.5385 9.58339 8.28469 10.4415 8.28469 11.5001C8.28469 12.5586 7.5385 13.4167 6.61802 13.4167C5.69755 13.4167 4.95135 12.5586 4.95135 11.5001Z" fill="black"/>
<path fill-rule="evenodd" clip-rule="evenodd" d="M14.118 10.5417C13.6578 10.5417 13.2847 10.9708 13.2847 11.5001C13.2847 12.0293 13.6578 12.4584 14.118 12.4584C14.5783 12.4584 14.9514 12.0293 14.9514 11.5001C14.9514 10.9708 14.5783 10.5417 14.118 10.5417ZM12.4514 11.5001C12.4514 10.4415 13.1975 9.58339 14.118 9.58339C15.0385 9.58339 15.7847 10.4415 15.7847 11.5001C15.7847 12.5586 15.0385 13.4167 14.118 13.4167C13.1975 13.4167 12.4514 12.5586 12.4514 11.5001Z" fill="black"/>
<path fill-rule="evenodd" clip-rule="evenodd" d="M8.7014 14.8542C8.93148 14.8542 9.11806 15.0688 9.11806 15.3334L9.11831 15.336C9.11831 15.336 9.11923 15.3404 9.1209 15.3451C9.12423 15.3545 9.13231 15.3722 9.15048 15.3969C9.18848 15.4486 9.25981 15.5157 9.3759 15.5825C9.60831 15.7161 9.95848 15.8126 10.3681 15.8126C10.7776 15.8126 11.1278 15.7161 11.3602 15.5825C11.4763 15.5157 11.5476 15.4486 11.5856 15.3969C11.6038 15.3722 11.6119 15.3545 11.6152 15.3451C11.6169 15.3404 11.6178 15.336 11.6178 15.336L11.6181 15.3334C11.6181 15.0688 11.8046 14.8542 12.0347 14.8542C12.2648 14.8542 12.4514 15.0688 12.4514 15.3334C12.4514 15.8773 12.0788 16.2408 11.7329 16.4396C11.3621 16.6528 10.879 16.7709 10.3681 16.7709C9.85715 16.7709 9.37406 16.6528 9.00323 16.4396C8.65731 16.2408 8.28473 15.8773 8.28473 15.3334C8.28473 15.0688 8.47128 14.8542 8.7014 14.8542Z" fill="black"/>
<path fill-rule="evenodd" clip-rule="evenodd" d="M13.7014 5.2709V7.18757H7.03473V5.2709C7.03473 5.00627 6.84818 4.79173 6.61806 4.79173C6.38795 4.79173 6.2014 5.00627 6.2014 5.2709V7.18757H5.36806C4.21747 7.18757 3.28473 8.26022 3.28473 9.5834V16.2917C3.28473 17.6149 4.21747 18.6876 5.36806 18.6876H15.3681C16.5186 18.6876 17.4514 17.6149 17.4514 16.2917V9.5834C17.4514 8.26022 16.5186 7.18757 15.3681 7.18757H14.5347V5.2709C14.5347 5.00627 14.3481 4.79173 14.1181 4.79173C13.888 4.79173 13.7014 5.00627 13.7014 5.2709ZM5.36806 8.1459C4.6777 8.1459 4.11806 8.78949 4.11806 9.5834V16.2917C4.11806 17.0856 4.6777 17.7292 5.36806 17.7292H15.3681C16.0584 17.7292 16.6181 17.0856 16.6181 16.2917V9.5834C16.6181 8.78949 16.0584 8.1459 15.3681 8.1459H5.36806Z" fill="black"/>
</svg>
