<svg width="21" height="20" viewBox="0 0 21 20" fill="none" xmlns="http://www.w3.org/2000/svg">
<path d="M2.06474 10.2684C2.00723 10.0956 2.00723 9.90874 2.06474 9.73589C3.22057 6.25839 6.50141 3.75006 10.3681 3.75006C14.2331 3.75006 17.5122 6.25589 18.6706 9.73173C18.7289 9.90423 18.7289 10.0909 18.6706 10.2642C17.5156 13.7417 14.2347 16.2501 10.3681 16.2501C6.50307 16.2501 3.22307 13.7442 2.06474 10.2684Z" stroke="black" stroke-width="1.5" stroke-linecap="round" stroke-linejoin="round"/>
<path d="M12.868 10.0001C12.868 10.6631 12.6047 11.299 12.1358 11.7678C11.667 12.2367 11.0311 12.5001 10.368 12.5001C9.705 12.5001 9.06912 12.2367 8.60027 11.7678C8.13143 11.299 7.86804 10.6631 7.86804 10.0001C7.86804 9.33702 8.13143 8.70113 8.60027 8.23229C9.06912 7.76345 9.705 7.50006 10.368 7.50006C11.0311 7.50006 11.667 7.76345 12.1358 8.23229C12.6047 8.70113 12.868 9.33702 12.868 10.0001Z" stroke="black" stroke-width="1.5" stroke-linecap="round" stroke-linejoin="round"/>
</svg>
