<svg width="21" height="20" viewBox="0 0 21 20" fill="none" xmlns="http://www.w3.org/2000/svg">
<path d="M9.88471 12.6417L14.743 17.5C15.1597 17.9034 15.7182 18.1268 16.2981 18.1221C16.878 18.1174 17.4328 17.8849 17.8429 17.4749C18.2529 17.0648 18.4854 16.51 18.4901 15.9301C18.4948 15.3502 18.2714 14.7917 17.868 14.375L12.9705 9.47753M9.88471 12.6417L11.9647 10.1167C12.2289 9.7967 12.5814 9.59503 12.9714 9.47836C13.4297 9.3417 13.9405 9.3217 14.4239 9.3617C15.0754 9.41764 15.7302 9.30225 16.3234 9.02696C16.9165 8.75167 17.4274 8.32606 17.8052 7.79237C18.1831 7.25867 18.4149 6.63545 18.4775 5.98453C18.5401 5.33361 18.4314 4.67764 18.1622 4.0817L15.4322 6.81253C14.9755 6.70691 14.5575 6.47517 14.2261 6.14368C13.8946 5.81219 13.6628 5.39428 13.5572 4.93753L16.2872 2.20753C15.6913 1.93833 15.0353 1.82965 14.3844 1.89227C13.7335 1.95488 13.1102 2.18662 12.5765 2.56449C12.0428 2.94235 11.6172 3.45321 11.3419 4.04636C11.0667 4.63951 10.9513 5.29434 11.0072 5.94586C11.083 6.84253 10.948 7.83253 10.2539 8.4042L10.1689 8.47503M9.88471 12.6417L6.00554 17.3525C5.81753 17.5817 5.58362 17.769 5.31887 17.9023C5.05411 18.0356 4.76438 18.112 4.46832 18.1266C4.17225 18.1411 3.87641 18.0936 3.59985 17.9869C3.32328 17.8802 3.07211 17.7168 2.86251 17.5072C2.65291 17.2976 2.48951 17.0465 2.38284 16.7699C2.27618 16.4933 2.2286 16.1975 2.24317 15.9014C2.25774 15.6054 2.33414 15.3156 2.46745 15.0509C2.60076 14.7861 2.78803 14.5522 3.01721 14.3642L8.71471 9.67253L5.29221 6.25003H4.11804L2.24304 3.12503L3.49304 1.87503L6.61804 3.75003V4.9242L10.168 8.4742L8.71387 9.6717M15.6805 15.3125L13.493 13.125M4.42387 15.9375H4.43054V15.9442H4.42387V15.9375Z" stroke="black" stroke-width="1.5" stroke-linecap="round" stroke-linejoin="round"/>
</svg>
